<mxfile host="Electron" agent="Mozilla/5.0 (Windows NT 10.0; Win64; x64) AppleWebKit/537.36 (KHTML, like Gecko) draw.io/28.0.4 Chrome/138.0.7204.97 Electron/37.2.1 Safari/537.36" version="28.0.4">
  <diagram name="Page-1" id="-JqwQkFVfQSMNKF2a71q">
    <mxGraphModel dx="1426" dy="849" grid="1" gridSize="10" guides="1" tooltips="1" connect="1" arrows="1" fold="1" page="1" pageScale="1" pageWidth="850" pageHeight="1100" math="0" shadow="0">
      <root>
        <mxCell id="0" />
        <mxCell id="1" parent="0" />
        <mxCell id="Pp-rEjbLD93cRbg4Ni9k-1" value="TNHx" style="text;html=1;align=center;verticalAlign=middle;resizable=0;points=[];autosize=1;strokeColor=none;fillColor=none;" parent="1" vertex="1">
          <mxGeometry x="10" y="10" width="50" height="30" as="geometry" />
        </mxCell>
        <mxCell id="Pp-rEjbLD93cRbg4Ni9k-5" value="" style="edgeStyle=orthogonalEdgeStyle;rounded=0;orthogonalLoop=1;jettySize=auto;html=1;" parent="1" source="Pp-rEjbLD93cRbg4Ni9k-2" target="Pp-rEjbLD93cRbg4Ni9k-4" edge="1">
          <mxGeometry relative="1" as="geometry" />
        </mxCell>
        <mxCell id="Pp-rEjbLD93cRbg4Ni9k-2" value="ASCII[2]&lt;div&gt;&lt;/div&gt;" style="strokeWidth=2;html=1;shape=mxgraph.flowchart.start_1;whiteSpace=wrap;" parent="1" vertex="1">
          <mxGeometry x="50" y="50" width="100" height="60" as="geometry" />
        </mxCell>
        <mxCell id="Pp-rEjbLD93cRbg4Ni9k-7" value="" style="edgeStyle=orthogonalEdgeStyle;rounded=0;orthogonalLoop=1;jettySize=auto;html=1;entryX=0;entryY=0.5;entryDx=0;entryDy=0;" parent="1" source="Pp-rEjbLD93cRbg4Ni9k-4" target="Pp-rEjbLD93cRbg4Ni9k-8" edge="1">
          <mxGeometry relative="1" as="geometry">
            <mxPoint x="210" y="220" as="targetPoint" />
          </mxGeometry>
        </mxCell>
        <mxCell id="Pp-rEjbLD93cRbg4Ni9k-18" value="" style="edgeStyle=orthogonalEdgeStyle;rounded=0;orthogonalLoop=1;jettySize=auto;html=1;" parent="1" source="Pp-rEjbLD93cRbg4Ni9k-4" target="Pp-rEjbLD93cRbg4Ni9k-17" edge="1">
          <mxGeometry relative="1" as="geometry" />
        </mxCell>
        <mxCell id="Pp-rEjbLD93cRbg4Ni9k-4" value="Load Data" style="rounded=1;whiteSpace=wrap;html=1;absoluteArcSize=1;arcSize=14;strokeWidth=2;" parent="1" vertex="1">
          <mxGeometry x="50" y="170" width="100" height="100" as="geometry" />
        </mxCell>
        <mxCell id="Pp-rEjbLD93cRbg4Ni9k-15" value="" style="edgeStyle=orthogonalEdgeStyle;rounded=0;orthogonalLoop=1;jettySize=auto;html=1;" parent="1" source="Pp-rEjbLD93cRbg4Ni9k-8" target="Pp-rEjbLD93cRbg4Ni9k-14" edge="1">
          <mxGeometry relative="1" as="geometry" />
        </mxCell>
        <mxCell id="Pp-rEjbLD93cRbg4Ni9k-8" value="LODSW" style="shape=parallelogram;html=1;strokeWidth=2;perimeter=parallelogramPerimeter;whiteSpace=wrap;rounded=1;arcSize=12;size=0.23;" parent="1" vertex="1">
          <mxGeometry x="210" y="190" width="100" height="60" as="geometry" />
        </mxCell>
        <mxCell id="Pp-rEjbLD93cRbg4Ni9k-14" value="XCHG(AX)" style="rounded=1;whiteSpace=wrap;html=1;absoluteArcSize=1;arcSize=14;strokeWidth=2;" parent="1" vertex="1">
          <mxGeometry x="370" y="170" width="100" height="100" as="geometry" />
        </mxCell>
        <mxCell id="Pp-rEjbLD93cRbg4Ni9k-20" value="" style="edgeStyle=orthogonalEdgeStyle;rounded=0;orthogonalLoop=1;jettySize=auto;html=1;" parent="1" source="Pp-rEjbLD93cRbg4Ni9k-17" target="Pp-rEjbLD93cRbg4Ni9k-19" edge="1">
          <mxGeometry relative="1" as="geometry" />
        </mxCell>
        <mxCell id="Pp-rEjbLD93cRbg4Ni9k-30" value="" style="edgeStyle=orthogonalEdgeStyle;rounded=0;orthogonalLoop=1;jettySize=auto;html=1;entryX=0.5;entryY=0;entryDx=0;entryDy=0;" parent="1" source="Pp-rEjbLD93cRbg4Ni9k-17" target="Pp-rEjbLD93cRbg4Ni9k-31" edge="1">
          <mxGeometry relative="1" as="geometry">
            <mxPoint x="100" y="510" as="targetPoint" />
          </mxGeometry>
        </mxCell>
        <mxCell id="Pp-rEjbLD93cRbg4Ni9k-17" value="Conversion" style="rounded=1;whiteSpace=wrap;html=1;absoluteArcSize=1;arcSize=14;strokeWidth=2;" parent="1" vertex="1">
          <mxGeometry x="50" y="330" width="100" height="100" as="geometry" />
        </mxCell>
        <mxCell id="Pp-rEjbLD93cRbg4Ni9k-23" value="" style="edgeStyle=orthogonalEdgeStyle;rounded=0;orthogonalLoop=1;jettySize=auto;html=1;" parent="1" source="Pp-rEjbLD93cRbg4Ni9k-19" target="Pp-rEjbLD93cRbg4Ni9k-21" edge="1">
          <mxGeometry relative="1" as="geometry" />
        </mxCell>
        <mxCell id="Pp-rEjbLD93cRbg4Ni9k-25" value="YES" style="edgeLabel;html=1;align=center;verticalAlign=middle;resizable=0;points=[];" parent="Pp-rEjbLD93cRbg4Ni9k-23" vertex="1" connectable="0">
          <mxGeometry x="-0.281" y="2" relative="1" as="geometry">
            <mxPoint as="offset" />
          </mxGeometry>
        </mxCell>
        <mxCell id="Pp-rEjbLD93cRbg4Ni9k-24" value="" style="edgeStyle=orthogonalEdgeStyle;rounded=0;orthogonalLoop=1;jettySize=auto;html=1;" parent="1" source="Pp-rEjbLD93cRbg4Ni9k-19" target="Pp-rEjbLD93cRbg4Ni9k-22" edge="1">
          <mxGeometry relative="1" as="geometry" />
        </mxCell>
        <mxCell id="Pp-rEjbLD93cRbg4Ni9k-26" value="NO" style="edgeLabel;html=1;align=center;verticalAlign=middle;resizable=0;points=[];" parent="Pp-rEjbLD93cRbg4Ni9k-24" vertex="1" connectable="0">
          <mxGeometry x="-0.3667" relative="1" as="geometry">
            <mxPoint x="11" as="offset" />
          </mxGeometry>
        </mxCell>
        <mxCell id="Pp-rEjbLD93cRbg4Ni9k-19" value="IS&amp;nbsp;â‰¥ &#39;A&#39;" style="strokeWidth=2;html=1;shape=mxgraph.flowchart.decision;whiteSpace=wrap;" parent="1" vertex="1">
          <mxGeometry x="210" y="330" width="100" height="100" as="geometry" />
        </mxCell>
        <mxCell id="Pp-rEjbLD93cRbg4Ni9k-21" value="SUB 0x30" style="rounded=1;whiteSpace=wrap;html=1;absoluteArcSize=1;arcSize=14;strokeWidth=2;" parent="1" vertex="1">
          <mxGeometry x="210" y="490" width="100" height="100" as="geometry" />
        </mxCell>
        <mxCell id="Pp-rEjbLD93cRbg4Ni9k-22" value="SUB &#39;0&#39;" style="rounded=1;whiteSpace=wrap;html=1;absoluteArcSize=1;arcSize=14;strokeWidth=2;" parent="1" vertex="1">
          <mxGeometry x="370" y="330" width="100" height="100" as="geometry" />
        </mxCell>
        <mxCell id="Pp-rEjbLD93cRbg4Ni9k-40" value="" style="edgeStyle=orthogonalEdgeStyle;rounded=0;orthogonalLoop=1;jettySize=auto;html=1;" parent="1" source="Pp-rEjbLD93cRbg4Ni9k-31" target="Pp-rEjbLD93cRbg4Ni9k-39" edge="1">
          <mxGeometry relative="1" as="geometry" />
        </mxCell>
        <mxCell id="Pp-rEjbLD93cRbg4Ni9k-47" value="" style="edgeStyle=orthogonalEdgeStyle;rounded=0;orthogonalLoop=1;jettySize=auto;html=1;" parent="1" source="Pp-rEjbLD93cRbg4Ni9k-31" target="Pp-rEjbLD93cRbg4Ni9k-46" edge="1">
          <mxGeometry relative="1" as="geometry" />
        </mxCell>
        <mxCell id="Pp-rEjbLD93cRbg4Ni9k-31" value="Storing Result" style="rounded=1;whiteSpace=wrap;html=1;absoluteArcSize=1;arcSize=14;strokeWidth=2;" parent="1" vertex="1">
          <mxGeometry x="50" y="650" width="100" height="100" as="geometry" />
        </mxCell>
        <mxCell id="Pp-rEjbLD93cRbg4Ni9k-38" value="MSB|LSB-Nibble" style="text;html=1;align=center;verticalAlign=middle;resizable=0;points=[];autosize=1;strokeColor=none;fillColor=none;" parent="1" vertex="1">
          <mxGeometry x="205" y="298" width="110" height="30" as="geometry" />
        </mxCell>
        <mxCell id="oOcFDULxwllrK6s1tI6b-3" value="" style="edgeStyle=orthogonalEdgeStyle;rounded=0;orthogonalLoop=1;jettySize=auto;html=1;" edge="1" parent="1" source="Pp-rEjbLD93cRbg4Ni9k-39" target="oOcFDULxwllrK6s1tI6b-1">
          <mxGeometry relative="1" as="geometry" />
        </mxCell>
        <mxCell id="Pp-rEjbLD93cRbg4Ni9k-39" value="ROL(AX)&lt;div&gt;[4]&lt;/div&gt;" style="rounded=1;whiteSpace=wrap;html=1;absoluteArcSize=1;arcSize=14;strokeWidth=2;" parent="1" vertex="1">
          <mxGeometry x="210" y="650" width="100" height="100" as="geometry" />
        </mxCell>
        <mxCell id="Pp-rEjbLD93cRbg4Ni9k-44" value="STOSB" style="shape=parallelogram;html=1;strokeWidth=2;perimeter=parallelogramPerimeter;whiteSpace=wrap;rounded=1;arcSize=12;size=0.23;" parent="1" vertex="1">
          <mxGeometry x="530" y="670" width="100" height="60" as="geometry" />
        </mxCell>
        <mxCell id="Pp-rEjbLD93cRbg4Ni9k-46" value="RETURN TO CALLER" style="strokeWidth=2;html=1;shape=mxgraph.flowchart.start_1;whiteSpace=wrap;" parent="1" vertex="1">
          <mxGeometry x="50" y="830" width="100" height="60" as="geometry" />
        </mxCell>
        <mxCell id="oOcFDULxwllrK6s1tI6b-4" value="" style="edgeStyle=orthogonalEdgeStyle;rounded=0;orthogonalLoop=1;jettySize=auto;html=1;" edge="1" parent="1" source="oOcFDULxwllrK6s1tI6b-1" target="Pp-rEjbLD93cRbg4Ni9k-44">
          <mxGeometry relative="1" as="geometry" />
        </mxCell>
        <mxCell id="oOcFDULxwllrK6s1tI6b-1" value="&lt;span style=&quot;text-wrap-mode: nowrap;&quot;&gt;OR AL, AH&lt;/span&gt;" style="rounded=1;whiteSpace=wrap;html=1;absoluteArcSize=1;arcSize=14;strokeWidth=2;" vertex="1" parent="1">
          <mxGeometry x="370" y="650" width="100" height="100" as="geometry" />
        </mxCell>
      </root>
    </mxGraphModel>
  </diagram>
</mxfile>
